<?xml version="1.0" standalone="no"?>
<!DOCTYPE svg PUBLIC "-//W3C//DTD SVG 20010904//EN"
 "http://www.w3.org/TR/2001/REC-SVG-20010904/DTD/svg10.dtd">
<svg version="1.0" xmlns="http://www.w3.org/2000/svg"
 width="500.000000pt" height="500.000000pt" viewBox="0 0 500.000000 500.000000"
 preserveAspectRatio="xMidYMid meet">

<g transform="translate(0.000000,500.000000) scale(0.100000,-0.100000)"
fill="#000000" stroke="none">
<path d="M2487 4049 c-7 -19 -114 -279 -237 -579 -123 -300 -226 -548 -229
-552 -3 -4 -105 251 -226 567 -121 316 -222 575 -225 575 -5 0 -661 -2986
-660 -3007 0 -10 36 -13 144 -13 80 0 147 3 149 8 3 4 102 457 222 1007 119
550 218 1001 219 1003 2 1 51 -119 109 -268 l106 -270 -296 -718 c-162 -394
-299 -727 -304 -739 l-9 -23 159 0 159 0 25 63 c13 34 82 207 152 385 l127
322 132 0 132 0 179 -457 c98 -252 181 -461 184 -465 3 -4 87 202 186 457
l180 465 131 0 132 0 25 -62 c13 -35 82 -208 152 -385 l127 -323 159 0 159 0
-9 23 c-5 12 -140 341 -300 731 -160 391 -291 718 -291 727 0 18 201 542 206
537 1 -2 100 -448 219 -993 119 -545 218 -998 221 -1007 5 -16 21 -18 150 -18
123 0 144 2 144 15 0 13 -644 2981 -653 3009 -2 5 -99 -243 -216 -550 -118
-308 -219 -569 -225 -582 -11 -20 -38 41 -250 560 -132 321 -240 585 -242 587
-1 2 -9 -12 -17 -30z m188 -1092 l168 -427 -84 -220 -84 -220 -174 2 -173 3
-84 219 -84 219 161 406 c89 223 165 417 170 430 5 13 11 22 13 20 2 -2 79
-196 171 -432z m-655 -854 c0 -7 -7 -13 -15 -13 -16 0 -19 9 -9 35 5 13 8 14
15 3 5 -7 9 -19 9 -25z m990 0 c0 -7 -7 -13 -15 -13 -16 0 -19 9 -9 35 5 13 8
14 15 3 5 -7 9 -19 9 -25z m-473 -373 c-16 -45 -33 -77 -37 -73 -7 8 -60 139
-60 148 0 3 29 5 64 5 l64 0 -31 -80z"/>
</g>
</svg>
