<?xml version="1.0" standalone="no"?>
<!DOCTYPE svg PUBLIC "-//W3C//DTD SVG 20010904//EN"
 "http://www.w3.org/TR/2001/REC-SVG-20010904/DTD/svg10.dtd">
<svg version="1.0" xmlns="http://www.w3.org/2000/svg"
 width="500.000000pt" height="500.000000pt" viewBox="0 0 500.000000 500.000000"
 preserveAspectRatio="xMidYMid meet">

<g transform="translate(0.000000,500.000000) scale(0.100000,-0.100000)"
fill="#000000" stroke="none">
<path d="M880 3763 c-43 -8 -60 -32 -60 -84 0 -60 14 -74 88 -89 193 -38 246
-76 277 -195 13 -50 15 -149 14 -635 0 -316 -4 -744 -8 -950 -6 -351 -8 -378
-28 -421 -36 -81 -110 -118 -233 -119 -67 0 -96 -18 -102 -62 -7 -42 8 -96 30
-106 21 -11 1192 -10 1209 1 18 11 31 67 25 105 -7 50 -31 59 -172 65 -138 5
-188 20 -216 61 -30 47 -4 158 104 434 l67 173 54 -3 55 -3 179 -405 c98 -223
187 -414 198 -425 14 -15 33 -20 69 -20 37 0 54 5 68 20 11 11 83 180 162 375
195 486 183 460 218 460 29 0 31 -4 110 -197 164 -404 154 -454 -95 -472 -57
-4 -109 -13 -115 -19 -7 -7 -12 -37 -12 -68 -1 -96 -59 -89 707 -89 740 0 692
-4 704 68 7 46 -12 93 -40 101 -12 3 -44 6 -72 6 -114 1 -188 37 -225 111 -37
72 -41 200 -38 1115 4 954 4 942 64 1005 45 48 82 62 183 70 113 10 126 19
126 89 0 37 -5 55 -21 70 -20 21 -24 21 -405 13 l-384 -8 -185 -457 c-101
-252 -187 -454 -191 -450 -3 4 -52 122 -108 262 -118 291 -155 370 -217 457
-108 152 -249 210 -518 216 -67 1 -133 -1 -148 -5 -32 -9 -51 -57 -42 -105 7
-38 18 -46 94 -63 95 -21 167 -51 197 -82 24 -25 28 -37 27 -86 0 -49 -16 -93
-115 -329 -63 -150 -116 -273 -119 -273 -3 0 -63 130 -133 289 -162 366 -209
440 -329 522 -74 51 -133 76 -233 99 -117 28 -387 47 -465 33z m734 -993 l209
-471 -153 -362 c-84 -199 -173 -404 -197 -456 -40 -83 -46 -92 -56 -75 -7 12
-14 137 -18 344 -10 459 -11 1502 -1 1496 5 -3 102 -217 216 -476z m1776 -222
c0 -386 -2 -699 -4 -697 -15 16 -287 706 -283 720 12 44 273 679 280 679 4 0
7 -316 7 -702z m-797 179 l180 -456 -30 -73 -29 -73 -185 0 -184 0 -97 215
c-53 118 -97 224 -97 234 -1 29 242 616 254 613 5 -2 90 -209 188 -460z m37
-796 c0 -23 -84 -221 -93 -218 -7 2 -107 211 -107 224 0 2 45 3 100 3 56 0
100 -4 100 -9z"/>
</g>
</svg>
